<?xml version="1.0"?>
<svg xmlns="http://www.w3.org/2000/svg" xmlns:xlink="http://www.w3.org/1999/xlink" version="1.1" id="Layer_1" x="0px" y="0px" viewBox="0 0 512 512" style="enable-background:new 0 0 512 512;" xml:space="preserve" width="512px" height="512px" class=""><g><circle style="fill:#091A68" cx="256" cy="256" r="256" data-original="#21D0C3" class="active-path" data-old_color="#21D0C3"/><path style="fill:#FED298;" d="M301.384,507.986c25.528-30.188,27.154-77.761,35.879-145.362c6.521,3.681,20.433,8.101,28.337,5.201  c7.903-2.896,20.152-15.99,22.918-26.387c2.804-6.356-2.185-42.65,9.797-52.76c26.89-22.697,21.306-105.238-0.443-117.533  c-23.472-13.27-43.643,2.392-46.063,15.357c4.956-35.181,6.609-98.87-28.817-161.883c-3.705-6.586-7.889-12.85-12.513-18.789  C292.923,2.023,274.701,0,256.005,0c-141.386,0-256,114.615-256,256s114.614,256,256,256c15.487,0,30.655-1.376,45.384-4.009  L301.384,507.986z" data-original="#FED298" class=""/><path style="fill:#FAD24D;" d="M326.63,236.952C311.818,246.698,256,256,256,256l-0.763,1.136c0.111,0.914,0.19,1.793,0.25,2.605  c23.593,1.991,95.008,5.907,98.87-20.157c0.652-4.411,1.677-8.425,2.965-12.023v-0.005c0,0,1.339-44.852-18.582-32.507  c-21.883,13.561-0.245,34.091-12.11,41.897V236.952z" data-original="#FAD24D" class=""/><g>
	<path style="fill:#E8B57F;" d="M384.462,207.766c-9.057-6.855-26.189,5.385-30.105,31.819   c-3.861,26.059-75.277,22.147-98.87,20.157c-0.587-8.101-3.344-22.771-15.764-17.907c-16.891,6.609-11.136,24.11-17.99,25.699   c-6.855,1.594-56.169,9.547-34.631,35.491c21.537,25.943,38.424,12,45.768,3.677c6.175-6.997,15.112-2.06,23.187-4.378   c16.074,1.728,45.351-25.329,71.379-19.658c26.922,5.871,5.876,24.479,22.032,23.99c16.151-0.49,26.922-15.662,22.032-33.283   c-3.709-13.353-10.688-65.601,12.97-65.601L384.462,207.766z" data-original="#E8B57F"/>
	<path style="fill:#E8B57F;" d="M395.168,239.137c-12.623,28.04,10.323-39.73-19.953-46.599   C386.877,172.193,405.375,213.262,395.168,239.137z" data-original="#E8B57F"/>
</g><path style="fill:#FFFFFF;" d="M28.415,249.289c46.59-60.613,115.981-60.613,162.566,0  C140.812,295.057,71.309,294.595,28.415,249.289z" data-original="#FFFFFF" class=""/><path style="fill:#D9A473;" d="M338.699,262.41c0,0-49.846,5.491-62.617,4.287c-12.771-1.205-20.271,6.628-28.955,0.388  c-8.683-6.24-5.792-17.935-11.219-9.746c-5.427,8.189-22.078,27.288-31.851,30.41c-9.773,3.118-13.03,15.205-0.721,18.715  c12.304,3.51,7.238-7.797,24.973-10.138c17.736-2.341,24.092,5.445,40.641-4.684s50.936-21.823,65.051-15.977  c14.115,5.848,13.648,20.531,24.198,16.309c10.549-4.222,6.753-38.003-2.208-36.807c-8.961,1.201-17.288,7.238-17.288,7.238  L338.699,262.41z" data-original="#D9A473"/><path style="fill:#091A68" d="M138.72,208.976c4.591,6.083,7.316,13.657,7.316,21.87c0,20.069-16.267,36.336-36.336,36.336  s-36.34-16.267-36.34-36.336c0-8.212,2.725-15.787,7.316-21.87c19.057-6.845,38.983-6.85,58.04,0L138.72,208.976L138.72,208.976z" data-original="#21D0C3" class="active-path" data-old_color="#21D0C3"/><path style="fill:#666666;" d="M109.701,217.637c7.293,0,13.209,5.916,13.209,13.209c0,7.293-5.916,13.209-13.209,13.209  s-13.209-5.912-13.209-13.209C96.491,223.553,102.403,217.637,109.701,217.637z" data-original="#666666"/><g>
	<path style="fill:#FFFFFF;" d="M91.683,209.633c3.459,0,6.268,2.804,6.268,6.263c0,3.464-2.809,6.268-6.268,6.268   c-3.459,0-6.263-2.804-6.263-6.268C85.419,212.436,88.223,209.633,91.683,209.633z" data-original="#FFFFFF" class=""/>
	<path style="fill:#FFFFFF;" d="M120.619,237.52c2.355,0,4.263,1.907,4.263,4.263c0,2.355-1.907,4.268-4.263,4.268   c-2.355,0-4.263-1.912-4.263-4.268C116.356,239.427,118.264,237.52,120.619,237.52z" data-original="#FFFFFF" class=""/>
</g><path style="fill:#828282;" d="M145.136,140.688c38.751,13.815,49.199,21.233,49.199,21.233s-41.112-15.163-58.968-13.14  c-17.861,2.023-112.883,40.437-112.883,40.437c-9.621-22.452,95.78-58.109,122.656-48.525L145.136,140.688z" data-original="#828282" class=""/><path style="fill:#FAD24D;" d="M327.018,301.62c-18.568-12.212-71.739,11.358-70.962,0.698c16.074,1.728,45.351-25.33,71.379-19.658  c26.922,5.871,5.876,24.479,22.032,23.99c2.443-0.074,4.762-0.485,6.923-1.192c4.166,19.63-3.802,41.14-17.26,38.059  C314.035,337.77,340.357,310.396,327.018,301.62z" data-original="#FAD24D" class=""/><path style="fill:#E8B57F;" d="M339.064,349.364c0,0,7.377,19.241,28.244,17.713c-0.587,0.295-1.215,0.439-1.714,0.753  c-8.96,5.658-29.685-2.822-30.821-7.547c-1.169-4.872,4.287-10.914,4.287-10.914L339.064,349.364z" data-original="#E8B57F"/><path style="fill:#FFE5BA;" d="M397.87,171.14c-26.946-18.299-43.638,3.779-46.063,15.357c-3.468,16.577-1.473,28.632,5.681,40.373  C357.488,226.87,357.714,164.705,397.87,171.14z" data-original="#FFE5BA" class=""/><g>
	<path style="fill:#E8B57F;" d="M28.415,249.289c75.785-98.408,148.872-4.31,162.566,0   C190.982,249.289,104.989,134.171,28.415,249.289z" data-original="#E8B57F"/>
	<path style="fill:#E8B57F;" d="M28.415,249.289c75.785,71.771,148.872,3.141,162.566,0   C190.982,249.289,104.989,333.249,28.415,249.289z" data-original="#E8B57F"/>
</g><path style="fill:#FEFEFE;" d="M335.397,114.541h0.009h0.009h0.009h0.009h0.009h0.009l0.887,0.005l0.887,0.009l0.877,0.014  l0.882,0.023l0.882,0.028l0.877,0.032l0.877,0.037l0.873,0.046l0.873,0.051l0.873,0.056l0.873,0.06l0.868,0.069l0.863,0.074  l0.868,0.079l0.868,0.083l0.863,0.093l0.863,0.097l0.859,0.102l0.859,0.106l0.859,0.116l0.854,0.12l0.854,0.125l0.85,0.13  l0.85,0.134l0.845,0.143l0.845,0.148l0.845,0.153l0.84,0.157l0.84,0.162l0.836,0.167l0.836,0.176l0.84,0.18l0.831,0.185l0.831,0.19  l0.831,0.194l0.826,0.199l0.826,0.208l0.826,0.213l0.822,0.218l0.822,0.222l0.817,0.227l0.817,0.236l0.812,0.236l0.813,0.245  l0.808,0.25l0.808,0.255l0.295,0.097c4.577,1.455,7.695-4.965,3.173-7.584c-0.231-0.116-0.439-0.204-0.675-0.281l-0.295-0.097  l-0.863-0.267l-0.863-0.263l-0.863-0.258l-0.868-0.255l-0.868-0.25l-0.873-0.245l-0.873-0.236l-0.873-0.231l-0.877-0.227  l-0.877-0.218l-0.882-0.213l-0.882-0.208l-0.887-0.204l-0.887-0.194l-0.887-0.19l-0.891-0.185l-0.896-0.18l-0.891-0.176  l-0.896-0.167l-0.896-0.162l-0.9-0.157l-0.9-0.148l-0.905-0.143l-0.905-0.139l-0.905-0.134l-0.91-0.125l-0.91-0.12l-0.914-0.116  l-0.919-0.106l-0.914-0.102l-0.919-0.097l-0.919-0.088l-0.919-0.083l-0.924-0.079l-0.924-0.069l-0.924-0.065l-0.928-0.06  l-0.928-0.051l-0.933-0.046l-0.933-0.042l-0.933-0.037l-0.933-0.028l-0.933-0.023l-0.942-0.019l-0.937-0.009l-0.937-0.005  l-0.937,0.005l-0.937,0.009l-0.942,0.019l-0.933,0.023l-0.933,0.028l-0.933,0.037l-0.933,0.042l-0.933,0.046l-0.928,0.051  l-0.693,0.046c-4.836,0.42-5.275,7.298-0.304,8.203c0.314,0.028,0.536,0.046,0.859,0.032l0.638-0.042l0.873-0.051l0.873-0.046  l0.877-0.037l0.877-0.032l0.882-0.028l0.882-0.023l0.877-0.014l0.887-0.009l0.826-0.005L335.397,114.541z M288.059,123.539  c4.134-1.575,3.085-7.958-1.566-7.958c-0.573,0.028-0.951,0.088-1.487,0.295l-0.411,0.162l-0.831,0.332l-0.826,0.341l-0.826,0.346  l-0.822,0.351l-0.822,0.355l-0.817,0.36l-0.817,0.365l-0.812,0.369l-0.812,0.374l-0.808,0.383L275.595,120l-0.803,0.392  l-0.803,0.397l-0.799,0.402l-0.794,0.406l-0.794,0.411l-0.794,0.416l-0.785,0.42l-0.785,0.425l-0.78,0.429l-0.78,0.434l-0.775,0.439  l-0.776,0.443l-0.771,0.453l-0.767,0.453l-0.767,0.462l-0.763,0.466l-0.758,0.466l-0.758,0.471l-0.753,0.48l-0.753,0.485  l-0.744,0.485l-0.749,0.49l-0.744,0.499l-0.739,0.499l-0.735,0.503l-0.73,0.508l-0.73,0.517l-0.726,0.522l-0.721,0.522l-0.721,0.527  l-0.716,0.536l-0.716,0.536l-0.707,0.54l-0.707,0.545l-0.707,0.55l-0.702,0.554l-0.056,0.042c-3.376,2.624-0.826,8.47,3.926,7.117  c0.485-0.171,0.859-0.383,1.261-0.698l0.014-0.009l0.661-0.527l0.661-0.522l0.67-0.517l0.67-0.513l0.67-0.508l0.675-0.503  l0.679-0.499l0.684-0.494l0.684-0.49l0.689-0.485l0.693-0.485l0.693-0.476l0.698-0.471l0.698-0.466l0.702-0.462l0.707-0.462  l0.707-0.457l0.712-0.448l0.712-0.448l0.716-0.443l0.716-0.439l0.721-0.429l0.726-0.429l0.726-0.425l0.73-0.42l0.73-0.416  l0.735-0.411l0.735-0.406l0.744-0.402l0.744-0.397l0.739-0.388l0.749-0.388l0.753-0.383l0.753-0.378l0.753-0.374l0.758-0.369  l0.763-0.365l0.763-0.36l0.763-0.355l0.767-0.346l0.767-0.341l0.771-0.341l0.772-0.332l0.775-0.328l0.776-0.323l0.78-0.318  l0.78-0.314l0.411-0.162L288.059,123.539z M226.167,172.636c2.849-4.162-2.776-8.804-6.323-5.256  c-0.167,0.176-0.291,0.328-0.434,0.527l-0.42,0.596l-0.517,0.744l-0.517,0.749l-0.513,0.753l-0.508,0.758l-0.503,0.758l-0.499,0.763  l-0.494,0.767l-0.49,0.767l-0.485,0.771l-0.48,0.775l-0.476,0.775l-0.476,0.785l-0.471,0.785l-0.466,0.789l-0.462,0.789  l-0.457,0.794l-0.453,0.799l-0.448,0.799l-0.443,0.803l-0.439,0.808l-0.434,0.812l-0.429,0.812l-0.425,0.817l-0.42,0.817  l-0.415,0.822l-0.411,0.826l-0.406,0.831l-0.402,0.826l-0.397,0.831l-0.392,0.836l-0.388,0.84l-0.383,0.84l-0.378,0.845l-0.374,0.85  l-0.369,0.85l-0.365,0.85l-0.36,0.859l-0.355,0.859l-0.351,0.863l-0.346,0.868l-0.341,0.868l-0.337,0.873l-0.332,0.873l-0.328,0.873  l-0.323,0.877l-0.065,0.18c-1.446,3.797,3.247,7.418,6.753,4.35c0.485-0.485,0.767-0.928,1.021-1.584l0.046-0.13l0.304-0.831  l0.309-0.831l0.314-0.826l0.318-0.822l0.323-0.822l0.328-0.817l0.332-0.817l0.337-0.817l0.341-0.812l0.346-0.812l0.351-0.808  l0.355-0.803l0.36-0.803l0.365-0.799l0.369-0.794l0.374-0.794l0.378-0.789l0.383-0.789l0.383-0.785l0.388-0.78l0.392-0.78  l0.397-0.775l0.406-0.775l0.406-0.771l0.411-0.766l0.416-0.763l0.42-0.763l0.425-0.763l0.429-0.758l0.434-0.753l0.434-0.753  l0.439-0.749l0.443-0.744l0.448-0.739l0.453-0.739l0.457-0.735l0.462-0.73l0.466-0.73l0.471-0.726l0.476-0.726l0.476-0.721  l0.48-0.712l0.485-0.712l0.49-0.712l0.494-0.707l0.42-0.596L226.167,172.636z M199.046,247.257c0.402-4.605-6.138-6.379-7.99-1.751  c-0.125,0.355-0.199,0.689-0.231,1.062l-0.042,0.499l-0.079,0.979l-0.074,0.979l-0.069,0.979l-0.06,0.979l-0.056,0.984l-0.051,0.984  l-0.046,0.988l-0.037,0.988l-0.032,0.988l-0.028,0.993l-0.019,0.993l-0.014,0.993l-0.009,0.998l-0.005,0.998l0.005,0.998  l0.009,0.998l0.014,0.993l0.019,0.993l0.028,0.993l0.032,0.988l0.037,0.988l0.046,0.988l0.051,0.984l0.056,0.984l0.06,0.979  l0.069,0.979l0.074,0.979l0.079,0.979l0.083,0.974l0.088,0.974l0.097,0.974l0.102,0.97l0.106,0.97l0.116,0.965l0.116,0.965  l0.125,0.965l0.13,0.956l0.134,0.961l0.143,0.956l0.148,0.956l0.153,0.951l0.157,0.951l0.088,0.513  c0.763,4.199,6.568,4.647,7.967,0.638c0.208-0.702,0.295-1.307,0.162-2.046l-0.079-0.466l-0.148-0.9l-0.143-0.91l-0.139-0.91  l-0.134-0.905l-0.13-0.91l-0.125-0.914l-0.12-0.914l-0.111-0.914l-0.106-0.919l-0.102-0.919l-0.097-0.924l-0.093-0.924l-0.083-0.928  l-0.079-0.928l-0.074-0.928l-0.069-0.928l-0.065-0.933l-0.06-0.933l-0.051-0.933l-0.046-0.937l-0.042-0.937l-0.037-0.937  l-0.032-0.942l-0.023-0.942l-0.019-0.942l-0.014-0.947l-0.009-0.947l-0.005-0.947l0.005-0.947l0.009-0.947l0.014-0.947l0.019-0.942  l0.023-0.942l0.032-0.942l0.037-0.937l0.042-0.937l0.046-0.937l0.051-0.933l0.06-0.933l0.065-0.933l0.069-0.928l0.074-0.928  l0.042-0.499L199.046,247.257z M212.528,325.577c-2.434-4.872-9.639-1.552-7.477,3.487l0.213,0.457l0.392,0.836l0.397,0.831  l0.402,0.826l0.406,0.831l0.411,0.826l0.416,0.822l0.42,0.817l0.425,0.817l0.429,0.813l0.434,0.812l0.439,0.808l0.443,0.803  l0.448,0.799l0.453,0.799l0.457,0.794l0.462,0.789l0.466,0.789l0.471,0.785l0.476,0.785l0.476,0.775l0.48,0.775l0.485,0.772  l0.49,0.767l0.494,0.767l0.499,0.763l0.503,0.758l0.508,0.758l0.513,0.753l0.517,0.749l0.517,0.744l0.527,0.744l0.531,0.739  l0.531,0.735l0.536,0.73l0.54,0.73l0.545,0.726l0.545,0.721l0.55,0.716l0.559,0.716l0.559,0.712l0.564,0.707l0.568,0.702  l0.573,0.702l0.577,0.698l0.582,0.693l0.508,0.601c2.259,2.559,6.328,1.575,7.154-1.737c0.295-1.243-0.028-2.651-0.877-3.617  l-0.476-0.559l-0.55-0.656l-0.545-0.656l-0.54-0.661l-0.536-0.665l-0.536-0.67l-0.531-0.67l-0.522-0.675l-0.522-0.679l-0.517-0.684  l-0.517-0.689l-0.508-0.689l-0.508-0.693l-0.503-0.698l-0.499-0.698l-0.494-0.702l-0.494-0.707l-0.49-0.712l-0.485-0.712  l-0.48-0.712L223.337,345l-0.476-0.726l-0.471-0.726l-0.466-0.73l-0.462-0.73l-0.457-0.735l-0.453-0.739l-0.448-0.739l-0.443-0.744  l-0.439-0.749l-0.434-0.753l-0.434-0.753l-0.429-0.758l-0.425-0.763l-0.42-0.763l-0.416-0.763l-0.411-0.767l-0.406-0.772  l-0.406-0.775l-0.397-0.776l-0.392-0.78l-0.388-0.78l-0.383-0.785l-0.383-0.789l-0.378-0.789l-0.374-0.794l-0.213-0.457  L212.528,325.577L212.528,325.577z M263.958,385.769c-4.189-2.647-8.632,2.909-5.122,6.42c0.199,0.185,0.402,0.355,0.633,0.503  l0.564,0.365l0.753,0.485l0.753,0.48l0.758,0.471l0.758,0.466l0.763,0.466l0.767,0.462l0.767,0.453l0.771,0.453l0.776,0.443  l0.775,0.439l0.78,0.434l0.78,0.429l0.785,0.425l0.785,0.42l0.794,0.416l0.794,0.411l0.794,0.406l0.799,0.402l0.803,0.397  l0.803,0.392l0.803,0.383l0.808,0.383l0.812,0.374l0.812,0.369l0.817,0.365l0.817,0.36l0.822,0.355l0.822,0.351l0.826,0.346  l0.826,0.341l0.831,0.332l0.836,0.328l0.836,0.323l0.84,0.318l0.84,0.314l0.84,0.304l0.845,0.304l0.85,0.295l0.845,0.291  l0.854,0.286l0.854,0.277l0.859,0.277l0.863,0.267l0.863,0.263l0.863,0.259l0.868,0.254l0.61,0.176  c4.54,1.238,7.275-4.827,3.39-7.418c-0.383-0.236-0.721-0.406-1.15-0.527l-0.559-0.162l-0.812-0.236l-0.812-0.245l-0.808-0.25  l-0.808-0.255l-0.808-0.259l-0.803-0.263l-0.799-0.267l-0.803-0.277l-0.799-0.277l-0.794-0.286l-0.794-0.291l-0.789-0.295  l-0.789-0.3l-0.785-0.304l-0.785-0.309l-0.78-0.314l-0.78-0.318l-0.775-0.323l-0.775-0.328l-0.772-0.332l-0.772-0.341l-0.767-0.341  l-0.767-0.346l-0.763-0.355l-0.763-0.36l-0.763-0.365l-0.758-0.369l-0.753-0.374l-0.753-0.378l-0.753-0.383l-0.749-0.388  l-0.739-0.388l-0.744-0.397l-0.744-0.402l-0.735-0.406l-0.735-0.411l-0.73-0.416l-0.73-0.42l-0.726-0.425l-0.726-0.429l-0.721-0.429  l-0.716-0.439l-0.716-0.443l-0.712-0.448l-0.712-0.448l-0.707-0.457l-0.564-0.365L263.958,385.769z M339.733,407.187  c-5.094,0.222-5.436,7.76-0.093,8.245l0.369,0.005l0.134-0.005l0.933-0.037l0.933-0.042l0.933-0.046l0.928-0.051l0.928-0.06  l0.924-0.065l0.924-0.069l0.924-0.079l0.919-0.083l0.919-0.088l0.919-0.097l0.914-0.102l0.919-0.106l0.914-0.116l0.91-0.12  l0.91-0.125l0.905-0.134l0.905-0.139l0.905-0.143l0.9-0.148l0.9-0.157l0.896-0.162l0.896-0.167l0.891-0.176l0.896-0.18l0.891-0.185  l0.887-0.19l0.887-0.194l0.887-0.204l0.882-0.208l0.882-0.213l0.877-0.217l0.877-0.227l0.873-0.231l0.873-0.236l0.873-0.245  l0.868-0.25l0.868-0.255l0.863-0.259l0.863-0.263l0.863-0.267l0.859-0.277l0.854-0.277l0.854-0.286l0.845-0.291l0.85-0.295  l0.369-0.134c4.748-1.805,2.795-8.836-2.222-7.926c-0.199,0.046-0.388,0.093-0.582,0.162l-0.318,0.116l-0.799,0.277l-0.803,0.277  l-0.799,0.267l-0.803,0.263l-0.808,0.259l-0.808,0.254l-0.808,0.25l-0.812,0.245l-0.813,0.236l-0.817,0.236l-0.817,0.227  l-0.822,0.222l-0.822,0.217l-0.826,0.213l-0.826,0.208l-0.826,0.199l-0.831,0.194l-0.831,0.19l-0.831,0.185l-0.84,0.18l-0.836,0.176  l-0.836,0.167l-0.84,0.162l-0.84,0.157l-0.845,0.153l-0.845,0.148l-0.845,0.143l-0.85,0.134l-0.85,0.13l-0.854,0.125l-0.854,0.12  l-0.859,0.116l-0.859,0.106l-0.859,0.102l-0.863,0.097l-0.863,0.093l-0.868,0.083l-0.868,0.079l-0.863,0.074l-0.868,0.069  l-0.873,0.06l-0.873,0.056l-0.873,0.051l-0.873,0.046l-0.877,0.037l-0.877,0.032l-0.135,0.003L339.733,407.187z M413.962,380.859  c-4.088,3.178,0.065,9.464,4.642,6.813l0.304-0.208l0.028-0.019l0.716-0.536l0.707-0.54l0.707-0.545l0.707-0.55l0.702-0.554  l0.698-0.559l0.693-0.564l0.689-0.568l0.689-0.573l0.684-0.577l0.679-0.582l0.675-0.587l0.675-0.587l0.67-0.596l0.67-0.601  l0.661-0.601l0.661-0.605l0.656-0.61l0.652-0.615l0.651-0.619l0.647-0.624l0.642-0.628l0.642-0.633l0.633-0.633l0.633-0.638  l0.633-0.647l0.624-0.647l0.619-0.647l0.619-0.656l0.615-0.661l0.61-0.661l0.605-0.665l0.605-0.67l0.601-0.675l0.591-0.675  l0.591-0.679l0.587-0.684l0.582-0.689l0.582-0.693l0.577-0.698l0.573-0.702l0.568-0.702l0.564-0.707l0.559-0.712l0.559-0.716  l0.55-0.716l0.545-0.721l0.106-0.143c2.291-3.173-0.517-7.372-4.36-6.457c-0.974,0.291-1.626,0.712-2.254,1.52l-0.083,0.106  l-0.517,0.684l-0.522,0.679l-0.522,0.675l-0.531,0.67l-0.536,0.67l-0.536,0.665l-0.54,0.661l-0.545,0.656l-0.55,0.656l-0.55,0.652  l-0.554,0.647l-0.559,0.647l-0.564,0.642l-0.564,0.638l-0.568,0.633l-0.577,0.633l-0.577,0.628l-0.577,0.619l-0.582,0.619  l-0.587,0.614l-0.591,0.615l-0.591,0.605l-0.601,0.605l-0.601,0.601l-0.601,0.596l-0.605,0.591l-0.61,0.587l-0.615,0.587  l-0.619,0.582l-0.619,0.577l-0.624,0.573l-0.628,0.573l-0.628,0.564l-0.633,0.559l-0.638,0.559l-0.642,0.554l-0.642,0.55  l-0.647,0.545l-0.647,0.54l-0.652,0.536l-0.656,0.531l-0.656,0.527l-0.661,0.527l-0.661,0.522l-0.67,0.517l-0.67,0.513l-0.67,0.508  l-0.028,0.018L413.962,380.859z M461.757,317.702c-1.635,4.291,3.884,7.723,7.02,4.134c0.277-0.365,0.494-0.689,0.665-1.136  l0.222-0.568l0.337-0.873l0.332-0.873l0.328-0.873l0.323-0.877l0.318-0.882l0.309-0.882l0.304-0.882l0.304-0.887l0.3-0.891  l0.291-0.896l0.286-0.891l0.281-0.896l0.277-0.9l0.272-0.905l0.263-0.905l0.263-0.91l0.258-0.91l0.25-0.914l0.245-0.914l0.241-0.919  l0.236-0.919l0.231-0.919l0.227-0.924l0.222-0.928l0.217-0.928l0.208-0.928l0.204-0.933l0.199-0.933l0.194-0.937l0.19-0.937  l0.185-0.942l0.18-0.942l0.176-0.942l0.167-0.947l0.162-0.947l0.157-0.951l0.153-0.951l0.148-0.956l0.143-0.956l0.134-0.961  l0.13-0.956l0.125-0.965l0.116-0.965l0.097-0.812c0.494-5.431-7.459-6.342-8.198-0.928l-0.088,0.763l-0.111,0.914l-0.12,0.914  l-0.125,0.914l-0.13,0.91l-0.134,0.905l-0.139,0.91l-0.143,0.91l-0.148,0.9l-0.153,0.9l-0.157,0.9l-0.162,0.896l-0.167,0.896  l-0.176,0.891l-0.18,0.891l-0.185,0.891l-0.19,0.887l-0.194,0.882l-0.199,0.882l-0.204,0.882l-0.208,0.877l-0.213,0.877  l-0.222,0.877l-0.222,0.873l-0.231,0.868l-0.236,0.868l-0.241,0.868l-0.245,0.863l-0.25,0.863l-0.255,0.859l-0.258,0.854  l-0.263,0.854l-0.267,0.854l-0.272,0.854l-0.277,0.845l-0.281,0.84l-0.286,0.845l-0.291,0.84L463.535,313l-0.3,0.831l-0.304,0.831  l-0.309,0.831l-0.314,0.826l-0.318,0.822l-0.222,0.568L461.757,317.702z M470.893,238.726c0.656,4.799,7.972,4.744,8.212-0.545  c0-0.217-0.014-0.415-0.042-0.628l-0.023-0.157l-0.143-0.956l-0.148-0.956l-0.153-0.951l-0.157-0.951l-0.162-0.947l-0.167-0.947  l-0.176-0.942l-0.18-0.942l-0.185-0.942l-0.19-0.937l-0.194-0.937l-0.199-0.933l-0.204-0.933l-0.208-0.928l-0.218-0.928  l-0.222-0.928l-0.227-0.924l-0.231-0.919l-0.236-0.919l-0.241-0.919l-0.245-0.914l-0.25-0.914l-0.258-0.91l-0.263-0.91l-0.263-0.905  l-0.272-0.905l-0.277-0.9l-0.281-0.896l-0.286-0.891l-0.291-0.896l-0.3-0.891l-0.304-0.887l-0.304-0.882l-0.309-0.882l-0.318-0.882  l-0.323-0.877l-0.328-0.873l-0.332-0.873l-0.337-0.873l-0.341-0.868l-0.346-0.868l-0.351-0.863l-0.355-0.859l-0.36-0.859  l-0.204-0.476c-1.93-4.498-8.942-2.443-7.783,2.67c0.06,0.208,0.12,0.392,0.204,0.596l0.185,0.434l0.341,0.812l0.337,0.817  l0.332,0.817l0.328,0.817l0.323,0.822l0.318,0.822l0.314,0.826l0.309,0.831l0.304,0.831l0.3,0.831l0.295,0.836l0.291,0.84  l0.286,0.845l0.281,0.84l0.277,0.845l0.272,0.854l0.267,0.854l0.263,0.854l0.258,0.854l0.255,0.859l0.25,0.863l0.245,0.863  l0.241,0.868l0.236,0.868l0.231,0.868l0.222,0.873l0.222,0.877l0.213,0.877l0.208,0.877l0.204,0.882l0.199,0.882l0.194,0.882  l0.19,0.887l0.185,0.891l0.181,0.891l0.176,0.891l0.167,0.896l0.162,0.896l0.157,0.9l0.153,0.9l0.148,0.9l0.143,0.91l0.139,0.91  l0.134,0.905l0.023,0.157L470.893,238.726z M439.591,165.8c2.744,3.529,8.688,0.559,7.076-4.041  c-0.176-0.434-0.355-0.753-0.642-1.118l-0.088-0.111l-0.568-0.702l-0.573-0.702l-0.577-0.698l-0.582-0.693l-0.582-0.689  l-0.587-0.684l-0.591-0.679l-0.591-0.675l-0.601-0.675l-0.605-0.67l-0.605-0.665l-0.61-0.661l-0.614-0.661l-0.619-0.656  l-0.619-0.647l-0.624-0.647l-0.633-0.647l-0.633-0.638l-0.633-0.633l-0.642-0.633l-0.642-0.628l-0.647-0.624l-0.652-0.619  l-0.651-0.614l-0.656-0.61l-0.661-0.605l-0.661-0.601l-0.67-0.601l-0.67-0.596l-0.675-0.587l-0.675-0.587l-0.679-0.582l-0.684-0.577  l-0.689-0.573l-0.689-0.568l-0.693-0.564l-0.698-0.559l-0.702-0.554l-0.707-0.55l-0.707-0.545l-0.707-0.54l-0.716-0.536  l-0.716-0.536l-0.721-0.527l-0.721-0.522l-0.726-0.522l-0.73-0.517l-0.116-0.079c-4.051-2.772-8.739,2.61-5.317,6.259  c0.199,0.199,0.388,0.365,0.619,0.522l0.074,0.051l0.689,0.485l0.684,0.49l0.684,0.494l0.679,0.499l0.675,0.503l0.67,0.508  l0.67,0.513l0.67,0.517l0.661,0.522l0.661,0.527l0.656,0.527l0.656,0.531l0.651,0.536l0.647,0.54l0.647,0.545l0.642,0.55  l0.642,0.554l0.638,0.559l0.633,0.559l0.628,0.564l0.628,0.573l0.624,0.573l0.619,0.577l0.619,0.582l0.614,0.587l0.61,0.587  l0.605,0.591l0.601,0.596l0.601,0.601l0.601,0.605l0.591,0.605l0.591,0.615l0.587,0.614l0.582,0.619l0.577,0.619l0.577,0.628  l0.577,0.633l0.568,0.633l0.564,0.638l0.564,0.642l0.559,0.647l0.554,0.647l0.55,0.652l0.55,0.656l0.545,0.656l0.54,0.661  l0.536,0.665l0.088,0.111L439.591,165.8z" data-original="#FEFEFE" class=""/></g> </svg>
