<?xml version="1.0"?>
<svg xmlns="http://www.w3.org/2000/svg" xmlns:xlink="http://www.w3.org/1999/xlink" version="1.1" id="Layer_1" x="0px" y="0px" viewBox="0 0 511.997 511.997" style="enable-background:new 0 0 511.997 511.997;" xml:space="preserve" width="512px" height="512px" class=""><g><circle style="fill:#ECF0F1;" cx="255.999" cy="255.999" r="255.999" data-original="#ECF0F1"/><circle style="fill:#091A68" cx="255.999" cy="255.999" r="255.999" data-original="#21D0C3" class="" data-old_color="#21D0C3"/><path style="fill:#FF5B62;" d="M338.604,110.848C274.359,96.901,132.906,97.99,80.259,152.774  c-71.873,84.43-48.673,278.817-3.496,318.178S178.648,353.63,223.59,358.561c44.945,4.934,109.127-70.196,109.127-70.196  s67.188-17.546,87.157-46.469c19.969-28.918,61.969-74.446,88.196-91.614c26.225-17.162-84.395-71.794-169.467-39.437  L338.604,110.848L338.604,110.848z" data-original="#FF5B62"/><path style="fill:#FC6F76;" d="M442.408,177.155c-15.693,10.014-75.286,45.037-103.097,52.224  c-26.199,6.768-24.056-9.97-49.789,10.944c-103.79,84.351-89.284,24.452-151.892,62.981c-35.017,21.548-78.039,62.54-75.262,105.549  c2.781,43.007,18.904,60.29,18.904,60.29l-0.003-0.011c-7.355-8.947-9.466-27.791-14.862-58.503  c-8.756-49.831,86.094-121.674,118.526-116.504c46.467,7.407,124.587-60.607,124.587-60.607c0.682,0.338,1.369,0.653,2.056,0.949  l0.582,0.244c0.527,0.221,1.06,0.427,1.59,0.624l0.548,0.205c1.395,0.493,2.798,0.913,4.218,1.254l0.596,0.137  c0.54,0.124,1.081,0.234,1.621,0.333l0.582,0.108c0.714,0.121,1.427,0.231,2.143,0.314l0.16,0.018  c0.656,0.074,1.316,0.137,1.978,0.181l0.69,0.042c0.533,0.029,1.065,0.05,1.598,0.06l0.622,0.013c0.722,0.008,1.445,0,2.169-0.024  l0.338-0.018c0.638-0.026,1.275-0.068,1.917-0.118l0.624-0.055c0.582-0.053,1.168-0.116,1.755-0.189l0.538-0.066  c0.745-0.1,1.495-0.21,2.248-0.341l0.414-0.076c0.624-0.113,1.252-0.234,1.88-0.364l0.685-0.147  c0.588-0.129,1.178-0.267,1.768-0.414l0.582-0.145c0.761-0.194,1.527-0.401,2.293-0.624l0.433-0.131  c0.632-0.187,1.267-0.383,1.899-0.585l0.766-0.252c0.556-0.184,1.115-0.375,1.671-0.572l0.722-0.255  c0.779-0.28,1.558-0.572,2.339-0.878l0.375-0.15c0.669-0.262,1.34-0.535,2.012-0.815l0.732-0.309  c0.669-0.283,1.34-0.577,2.012-0.876l0.372-0.163c0.818-0.367,1.64-0.745,2.465-1.141l0.585-0.28  c0.617-0.296,1.238-0.598,1.859-0.907l0.839-0.42c0.682-0.343,1.361-0.693,2.046-1.049l0.343-0.176  c0.85-0.446,1.708-0.902,2.563-1.369l0.467-0.257c0.73-0.398,1.458-0.802,2.19-1.215l0.504-0.283  c0.748-0.425,1.503-0.855,2.254-1.293l0.409-0.237c0.881-0.511,1.763-1.036,2.649-1.566l0.314-0.189  c0.743-0.446,1.487-0.897,2.235-1.353l0.74-0.454l2.342-1.456l0.231-0.145c0.928-0.582,1.859-1.175,2.797-1.774l0.189-0.121  l2.642-1.705l0.304-0.2l2.755-1.809l0.039-0.026l0.221-0.145c15.46-10.232,31.891-22.186,49.375-33.711h0.009V177.155z" data-original="#FC6F76"/><g>
	<path style="fill:#ED4C54;" d="M511.309,146.864l-0.197,0.197c0,0-3.861-4.876-10.678-2.014   c-80.805,33.918-142.539,112.498-190.913,88.472c0,0-78.121,68.015-124.587,60.607c-32.43-5.17-127.282,66.668-118.526,116.504   c8.753,49.824,8.858,68.424,36.74,64.185c39.575-17.419,83.9-120.259,120.446-116.246c44.945,4.931,109.127-70.196,109.127-70.196   s67.188-17.546,87.157-46.472c19.972-28.918,61.969-74.446,88.196-91.614c1.553-1.015,2.61-2.167,3.237-3.42h-0.003V146.864z" data-original="#ED4C54"/>
	<path style="fill:#ED4C54;" d="M344.996,108.595c-39.335,34.566-31.372,83.265-26.23,128.265l-16.708,2.84   c0.306-72.075,1.07-99.674,34.602-129.264l8.336-1.844V108.595z" data-original="#ED4C54"/>
</g><g>
	<path style="fill:#FF878E;" d="M506.368,133.968c-1.207-0.68-76.781-43.054-140.246-23.347l-34.149,12.089l5.813-12.034   l0.815,0.173c65.463-24.9,146.038,1.711,167.767,23.117V133.968z" data-original="#FF878E" class=""/>
	<path style="fill:#FF878E;" d="M335.322,110.166l1.603,2.293l-6.945,4.292c0,0-199.729-30.708-256.971,58.186   C19.964,257.317,38.128,370.72,41.077,386.901c-14.243-75.29-8.139-178.537,39.185-234.124   c51.768-53.871,189.404-55.823,255.063-42.611H335.322z" data-original="#FF878E" class=""/>
</g><path style="fill:#FAD24D" d="M305.706,407.748l-5.521-93.109c1.223-1.716,2.248-4.087,3.386-6.71  c2.051-4.737,4.551-10.505,8.165-12.226c9.771-4.653,15.738-7.756,15.754-7.767c0.915-1.967-0.108-5.616-3.008-5.592  c-0.016,0.008-5.676,2.948-15.479,7.617c-5.737,2.731-8.764,9.718-11.25,15.458c-0.918,2.12-1.745,4.029-2.429,5.136  c-5.555-7.24-11.006-27.326-11.021-27.384c-1.435-2.736-6.022-2.07-6.138,1.616c0.016,0.063,6.014,22.12,12.496,30.094  c0.653,0.805,1.295,1.427,1.928,1.88l-1.663,33.758c-4.803-7.077-9.871-12.486-22.736-11.987  c-12.866,0.501-29.97-1.233-33.666-5.133c-3.696-3.9-25.862-32.848-52.961-25.044c-27.096,7.801-25.044,43.518-5.338,51.731  c19.706,8.21,45.163-6.568,52.966-6.159c7.804,0.409,35.88-4.263,48.035-2.874c6.426,0.735,10.649,5.4,13.199,9.634l-2.442,49.62  L305.706,407.748z" data-original="#FAD24D" class="active-path" data-old_color="#FAD24D"/><g>
	<path style="fill:#EDB937;" d="M286.361,344.747c-3.953-4.005-9.141-6.568-18.172-6.219c-12.866,0.501-29.97-1.233-33.666-5.133   c-3.696-3.9-25.862-32.848-52.961-25.044c-14.056,4.047-20.268,15.609-20.239,26.946c5.259-18.993,25.425-27.84,43.366-21.815   c12.381,4.158,22.45,16.336,28.838,23.937c3.559,2.584,19.302,5.505,30.309,3.793c10.957-1.705,21.849,3.764,22.529,3.533   L286.361,344.747z" data-original="#EDB937" class=""/>
	<path style="fill:#EDB937;" d="M296.287,405.33c4.976-0.682,9.341,0.593,9.747,2.851c0.406,2.259-3.3,4.64-8.276,5.322   c-4.976,0.682-9.341-0.593-9.747-2.851C287.605,408.394,291.31,406.012,296.287,405.33z" data-original="#EDB937" class=""/>
</g></g> </svg>
