<?xml version="1.0"?>
<svg xmlns="http://www.w3.org/2000/svg" xmlns:xlink="http://www.w3.org/1999/xlink" version="1.1" id="Layer_1" x="0px" y="0px" viewBox="0 0 512 512" style="enable-background:new 0 0 512 512;" xml:space="preserve" width="512px" height="512px" class=""><g><circle style="fill:#091A68" cx="256" cy="256" r="256" data-original="#FAD24D" class="active-path" data-old_color="#FAD24D"/><path style="fill:#FF5B62;" d="M208.244,40.414c-2.728,22.208-6.629,82.598,26.171,127.25  c12.102,16.467,24.972,17.521,30.006,23.962c63.451,104.598-48.532,140.303-55.375,117.784  c-12.272-40.36-98.607-67.347-163.838,0.701c-65.229,68.048-20.132,137.4-20.132,137.4l54.047-34.65  c0,0-30.749-51.916,16.771-76.882c47.52-24.965,59.592-7.251,54.765,13.691c-4.829,20.942-5.376,89.434,67.652,99.862  c250.8,35.824,319.317-351.894,153.196-352.947c-45.651-0.286-79.73,40.434-83.018,40.038c-18.22-2.203-33.914-73.143-23.468-93.986  C270.209,32.293,220.321,21.895,208.244,40.414L208.244,40.414z" data-original="#FF5B62"/><ellipse transform="matrix(-0.8617 0.5074 -0.5074 -0.8617 313.4216 773.0129)" style="fill:#ED4C54;" cx="51.369" cy="429.218" rx="32.207" ry="18.92" data-original="#ED4C54"/><path style="fill:#FF878E;" d="M83.405,281.367c-13.055,6.614-25.995,16.014-38.196,28.743  c-65.229,68.047-20.132,137.4-20.132,137.4l2.695-1.729l-2.716-16.726c0,0-11.153-18.338-8.816-51.199  C18.452,346.738,54.316,300.423,83.405,281.367z" data-original="#FF878E" class=""/><path style="fill:#ED4C54;" d="M28.471,450.092c-2.059-1.101-3.72-2.615-4.857-4.544c-2.677-4.546-1.929-10.523,1.44-16.491  L28.471,450.092z" data-original="#ED4C54"/><path style="fill:#FF878E;" d="M253.524,329.096c-21.847,10.057-45.115,9.91-57.237-2.039h-0.002c0,0-23.247-13.611-30.324-12.293  c-0.653,0.122-1.512,0.521-2.53,1.144c0.48,0.574,0.953,1.164,1.414,1.782c7.877,10.59,8.765,24.116,5.886,36.607  c-2.872,12.459-0.989,29.872,3.692,41.62c8.261,20.722,25.334,30.158,46.801,33.224c90.383,12.91,161.444-35.138,198.204-115.918  C346.146,342.956,305.071,301.094,253.524,329.096L253.524,329.096z" data-original="#FF878E" class=""/><path style="fill:#ED4C54;" d="M157.571,402.823c5.568,15.228,16.042,30.011,34.662,39.401c7.429,3.345,16.057,5.875,26.079,7.306  c219.159,31.308,299.116-260.791,204.959-335.695c21.378,24.117,46.574,123.67,5.803,203.333  c-42.79,83.604-98.267,118.926-158.899,125.207C209.679,448.643,169.44,434.793,157.571,402.823L157.571,402.823z" data-original="#ED4C54"/><g>
	<path style="fill:#FF878E;" d="M209.484,38.761c-7.414,102.926,32.19,128.072,16.902,102.773   c-15.084-24.962-14.725-83.207-11.425-107.097C212.833,35.602,210.969,37.03,209.484,38.761z" data-original="#FF878E" class=""/>
	<path style="fill:#FF878E;" d="M376.719,99.041c68.829-0.739,69.246,90.544,65.627,133.61   C442.197,99.638,384.124,104.121,376.719,99.041z" data-original="#FF878E" class=""/>
</g><g>
	<path style="fill:#ED4C54;" d="M260.611,35.631c-6.19,31.339-0.419,92.435,23.648,113.165c0,0,1.452-8.196,11.143-17.417   c-3.771,3.252-6.156,5.334-6.91,5.243c-18.221-2.203-33.914-73.142-23.468-93.986C266.259,40.174,264.368,37.708,260.611,35.631z" data-original="#ED4C54"/>
	<path style="fill:#ED4C54;" d="M151.62,342.729l0.002-0.002c14.863-47.929-102.025-16.902-81.235,45.827l0.005,0.015   c-3.097-16.923-0.666-38.843,25.503-52.591C138.026,313.843,152.292,325.26,151.62,342.729z" data-original="#ED4C54"/>
</g></g> </svg>
