<?xml version="1.0"?>
<svg xmlns="http://www.w3.org/2000/svg" xmlns:xlink="http://www.w3.org/1999/xlink" version="1.1" id="Capa_1" x="0px" y="0px" viewBox="0 0 512 512" style="enable-background:new 0 0 512 512;" xml:space="preserve" width="512px" height="512px" class=""><g><path style="fill:#FFCB46" d="M308.286,64.854c-2.996-0.956-4.869-3.912-4.29-7.002c0.794-4.237,1.04-8.666,0.658-13.215  c-2-23.784-21.335-42.85-45.146-44.514c-28.556-1.994-52.339,20.579-52.339,48.708c0,3.073,0.285,6.079,0.83,8.993  c0.579,3.101-1.279,6.07-4.285,7.029c-12.906,4.118-22.253,16.199-22.253,30.471v30.862l74.539,27.719l74.539-27.719V95.325  C330.539,81.053,321.192,68.972,308.286,64.854z" data-original="#FFDE76" class="active-path" data-old_color="#FFDE76"/><path style="fill:#FFB641;" d="M212.367,126.187V95.325c0-14.272,9.348-26.353,22.253-30.471c3.006-0.959,4.865-3.928,4.285-7.029  c-0.545-2.915-0.83-5.921-0.83-8.993c0-21.565,13.986-39.85,33.376-46.318c-3.801-1.274-7.802-2.102-11.942-2.39  c-28.555-1.995-52.338,20.578-52.338,48.707c0,3.073,0.285,6.079,0.83,8.993c0.579,3.102-1.279,6.07-4.285,7.029  c-12.906,4.118-22.253,16.199-22.253,30.471v30.862l74.539,27.719l15.453-5.746L212.367,126.187z" data-original="#FFB641" class=""/><path style="fill:#FAB3CE;" d="M330.539,116.518H181.461c-15.44,0-27.957,12.517-27.957,27.957V169.7l102.497,17.888L358.498,169.7  v-25.225C358.497,129.034,345.98,116.518,330.539,116.518z" data-original="#FAB3CE" class=""/><path style="fill:#E683A7;" d="M184.409,169.7v-25.225c0-15.44,12.517-27.957,27.957-27.957H181.46  c-15.44,0-27.957,12.517-27.957,27.957V169.7L256,187.589l15.453-2.697L184.409,169.7z" data-original="#E683A7" class=""/><path style="fill:#1561D5" d="M118.646,461.652c-6.328-21.807-7.981-51.814,2.771-92.103c5.018-18.804,5.018-38.595,0-57.399  C92.453,203.616,153.503,169.7,153.503,169.7h204.994c0,0,61.05,33.917,32.086,142.45c-5.018,18.804-5.018,38.595,0,57.399  c10.752,40.289,9.1,70.296,2.771,92.103C384.68,491.542,357.153,512,326.029,512H185.972  C154.848,512,127.32,491.542,118.646,461.652z" data-original="#80C9FF" class="" data-old_color="#80C9FF"/><path style="fill:#F5F5F5;" d="M357.998,378.276c-6.534-24.484-6.534-50.37,0-74.853c8.946-33.524,7.633-57.221,3.015-73.486  c-4.443-15.654-18.819-26.395-35.091-26.395H185.897c-16.066,0-30.368,10.463-34.934,25.866c-6.995,23.592-2.788,51.321,3.27,74.015  c6.533,24.484,6.533,50.368,0,74.852c-7.764,29.096-8.764,53.974-2.968,73.944c4.432,15.271,18.751,25.937,34.822,25.937h140.058  c16.071,0,30.391-10.665,34.822-25.935C366.761,432.25,365.762,407.371,357.998,378.276z" data-original="#F5F5F5"/><path style="fill:#D9D9D9;" d="M171.866,452.22c-5.796-19.969-4.797-44.848,2.968-73.944c6.533-24.484,6.533-50.368,0-74.852  c-6.056-22.695-10.265-50.422-3.27-74.015c4.567-15.403,18.869-25.866,34.934-25.866h-20.604c-16.066,0-30.368,10.463-34.934,25.866  c-6.995,23.592-2.788,51.321,3.27,74.015c6.533,24.484,6.533,50.368,0,74.852c-7.764,29.096-8.764,53.975-2.968,73.944  c4.432,15.271,18.751,25.937,34.822,25.937h20.604C190.618,478.157,176.298,467.491,171.866,452.22z" data-original="#D9D9D9"/><g>
	<path style="fill:#38484A;" d="M198.892,350.986c-4.268,0-7.726-3.459-7.726-7.726v-10.336c0-4.267,3.458-7.726,7.726-7.726   c4.268,0,7.726,3.459,7.726,7.726v10.335C206.618,347.527,203.16,350.986,198.892,350.986z" data-original="#38484A" class=""/>
	<path style="fill:#38484A;" d="M313.108,350.986c-4.268,0-7.726-3.459-7.726-7.726v-10.336c0-4.267,3.458-7.726,7.726-7.726   s7.726,3.459,7.726,7.726v10.335C320.835,347.527,317.375,350.986,313.108,350.986z" data-original="#38484A" class=""/>
	<path style="fill:#38484A;" d="M256,356.503c-7.723,0-14.981-3.236-19.912-8.878c-2.808-3.213-2.48-8.094,0.733-10.902   c3.212-2.807,8.093-2.48,10.902,0.733c1.996,2.284,5.013,3.594,8.276,3.594c3.264,0,6.281-1.309,8.276-3.594   c2.808-3.214,7.688-3.542,10.902-0.733c3.213,2.808,3.542,7.689,0.733,10.902C270.982,353.267,263.723,356.503,256,356.503z" data-original="#38484A" class=""/>
</g></g> </svg>
