<?xml version="1.0"?>
<svg xmlns="http://www.w3.org/2000/svg" xmlns:xlink="http://www.w3.org/1999/xlink" version="1.1" id="Capa_1" x="0px" y="0px" viewBox="0 0 512 512" style="enable-background:new 0 0 512 512;" xml:space="preserve" width="512px" height="512px" class=""><g><path style="fill:#1561D5" d="M413.476,224.438v127.92c0,65.929-53.634,119.564-119.564,119.564s-119.573-53.634-119.573-119.564  v-26.722L154.3,308.937l-20.039,16.699v26.722C134.261,440.38,205.88,512,293.912,512c88.022,0,159.642-71.62,159.642-159.642  v-127.92H413.476z" data-original="#80C9FF" class="active-path" data-old_color="#80C9FF"/><rect x="134.265" y="228.834" style="fill:#FFCB46" width="40.078" height="96.796" data-original="#A49EA6" class="" data-old_color="#A49EA6"/><path style="fill:#D0CAD4;" d="M154.303,251.877c-19.661,0-38.783-8.098-52.465-22.218l-69.424-71.647  c-17.21-16.121-27.069-38.844-27.069-62.441c0-47.174,38.378-85.551,85.551-85.551c11.067,0,20.039,8.972,20.039,20.039  s-8.971,20.039-20.038,20.039c-25.075,0-45.473,20.4-45.473,45.473c0,12.648,5.328,24.823,14.619,33.404  c0.272,0.251,0.537,0.51,0.794,0.776l69.783,72.019c6.176,6.374,14.807,10.029,23.682,10.029c8.874,0,17.506-3.655,23.682-10.029  l69.783-72.019c0.258-0.266,0.523-0.525,0.795-0.776c9.29-8.581,14.619-20.756,14.619-33.404c0-25.075-20.4-45.473-45.473-45.473  c-11.067,0-20.039-8.972-20.039-20.039s8.972-20.039,20.039-20.039c47.173,0,85.551,38.378,85.551,85.551  c0,23.597-9.858,46.319-27.069,62.44l-69.424,71.647C193.086,243.779,173.964,251.877,154.303,251.877z" data-original="#D0CAD4" class=""/><path style="fill:#FFCB46" d="M87.711,0L87.711,0c16.601,0,30.059,13.457,30.059,30.059l0,0c0,16.601-13.457,30.059-30.059,30.059  l0,0c-3.121,0-5.653-2.53-5.653-5.653V5.653C82.06,2.53,84.59,0,87.711,0z" data-original="#A49EA6" class="" data-old_color="#A49EA6"/><path style="fill:#6DAAD9;" d="M413.476,296.484c6.487,1.27,13.185,1.944,20.039,1.944c6.854,0,13.552-0.674,20.039-1.944v-72.046  h-40.078V296.484z" data-original="#6DAAD9" class=""/><circle style="fill:#D0CAD4;" cx="433.512" cy="194.385" r="73.143" data-original="#D0CAD4" class=""/><g>
	<circle style="fill:#FFCB46" cx="433.512" cy="194.385" r="34.068" data-original="#A49EA6" class="" data-old_color="#A49EA6"/>
	<path style="fill:#FFCB46" d="M220.894,0L220.894,0c-16.601,0-30.059,13.457-30.059,30.059l0,0   c0,16.601,13.457,30.059,30.059,30.059l0,0c3.121,0,5.653-2.53,5.653-5.653V5.653C226.547,2.53,224.016,0,220.894,0z" data-original="#A49EA6" class="" data-old_color="#A49EA6"/>
</g></g> </svg>
