<?xml version="1.0"?>
<svg xmlns="http://www.w3.org/2000/svg" xmlns:xlink="http://www.w3.org/1999/xlink" version="1.1" id="Capa_1" x="0px" y="0px" viewBox="0 0 512 512" style="enable-background:new 0 0 512 512;" xml:space="preserve" width="512px" height="512px" class=""><g><path style="fill:#E8E9EA;" d="M377.409,1.682c-24.381-0.077-47.262,6.309-67.03,17.542c-33.7,19.148-75.057,19.148-108.757,0  c-19.768-11.232-42.65-17.618-67.03-17.542C59.911,1.917-0.387,64.859,0.002,139.539c0.673,129.159,47.244,290.643,110.194,353.593  c10.67,10.67,25.43,17.249,41.726,17.185c32.469-0.129,58.288-27.208,58.438-59.677c0.244-52.746,23.357-64.633,45.64-64.633  c22.284,0,45.396,11.887,45.64,64.633c0.15,32.469,25.969,59.549,58.439,59.677c16.296,0.064,31.056-6.515,41.725-17.185  c62.95-62.95,109.521-224.434,110.194-353.593C512.387,64.859,452.089,1.917,377.409,1.682z" data-original="#E8E9EA" class=""/><path style="opacity:0.05;enable-background:new    ;" d="M322.315,46.312l-0.704-1.107c-4.979-7.834-9.26-14.561-17.733-22.57  c-5.109,2.468-10.366,4.51-15.717,6.144c11.027,9.109,15.289,15.814,20.79,24.472l0.71,1.116c1.43,2.246,3.855,3.474,6.334,3.474  c1.378,0,2.772-0.38,4.021-1.174C323.51,54.442,324.539,49.806,322.315,46.312z M190.391,45.202l-0.706,1.109  c-2.225,3.494-1.195,8.13,2.299,10.354c1.249,0.795,2.643,1.174,4.02,1.174c2.479,0,4.905-1.227,6.334-3.474l0.711-1.118  c5.502-8.657,9.763-15.362,20.789-24.47c-5.351-1.634-10.608-3.676-15.717-6.144C199.65,30.642,195.37,37.368,190.391,45.202z" data-original="#000000" class=""/><path style="opacity:0.05;enable-background:new    ;" d="M334.794,388.558c-27.144-32.167-85.956-48.519-169.077-33.992  C46.839,375.341,53.117,97.461,90.465,9.449C37.545,28.495-0.307,80.323,0.002,139.539  c0.673,129.159,47.244,290.643,110.193,353.593c10.67,10.67,25.43,17.249,41.726,17.184c32.469-0.129,58.288-27.208,58.438-59.677  c0.244-52.746,23.357-64.633,45.64-64.633c22.284,0,45.397,11.887,45.641,64.633c0.15,32.469,25.969,59.549,58.439,59.677  c16.296,0.064,31.056-6.515,41.725-17.184c29.865-29.865,56.038-81.914,75.378-142.16  C403.193,465.902,359.727,418.104,334.794,388.558z" data-original="#000000" class=""/><g>
	<ellipse style="fill:#EFC31E" cx="152.27" cy="197.509" rx="38.28" ry="30.481" data-original="#F28B74" class="active-path" data-old_color="#F28B74"/>
	<ellipse style="fill:#EFC31E" cx="359.73" cy="197.509" rx="38.28" ry="30.481" data-original="#F28B74" class="active-path" data-old_color="#F28B74"/>
</g><g>
	<path style="fill:#495059;" d="M158.665,169.016c-4.142,0-7.5-3.357-7.5-7.5v-16.429c0-4.143,3.358-7.5,7.5-7.5s7.5,3.357,7.5,7.5   v16.429C166.165,165.658,162.807,169.016,158.665,169.016z" data-original="#495059"/>
	<path style="fill:#495059;" d="M256,201.817L256,201.817c-15.315,0-27.731-12.416-27.731-27.731v-20.161   c0-4.181,3.389-7.57,7.57-7.57h40.322c4.181,0,7.57,3.389,7.57,7.57v20.161C283.731,189.401,271.315,201.817,256,201.817z" data-original="#495059"/>
	<path style="fill:#495059;" d="M353.335,169.016c-4.143,0-7.5-3.357-7.5-7.5v-16.429c0-4.143,3.357-7.5,7.5-7.5   c4.142,0,7.5,3.357,7.5,7.5v16.429C360.835,165.658,357.477,169.016,353.335,169.016z" data-original="#495059"/>
</g><path style="fill:#1B3E9C" d="M469.957,84.806L469.957,84.806c-2.733,6.275-11.633,6.275-14.366,0l0,0  c-5.365-12.317-15.194-22.146-27.511-27.511l0,0c-6.275-2.733-6.275-11.633,0-14.366l0,0c12.317-5.365,22.146-15.194,27.511-27.512  l0,0c2.733-6.275,11.633-6.275,14.366,0l0,0c5.365,12.317,15.194,22.146,27.512,27.512l0,0c6.275,2.733,6.275,11.633,0,14.366l0,0  C485.151,62.66,475.322,72.489,469.957,84.806z" data-original="#76B7EB" class="" data-old_color="#76B7EB"/><path style="fill:#123798" d="M413.353,322.185L413.353,322.185c-2.028,4.657-8.633,4.657-10.661,0l0,0  c-3.981-9.14-11.275-16.434-20.416-20.416l0,0c-4.656-2.028-4.656-8.633,0-10.661l0,0c9.14-3.981,16.434-11.275,20.416-20.416l0,0  c2.028-4.656,8.633-4.656,10.661,0l0,0c3.981,9.14,11.276,16.434,20.416,20.416l0,0c4.656,2.028,4.656,8.633,0,10.661l0,0  C424.629,305.75,417.335,313.044,413.353,322.185z" data-original="#B3E7FF" class="" data-old_color="#B3E7FF"/><path style="fill:#1B3E9C" d="M70.391,409.326L70.391,409.326c-3.482,7.995-14.821,7.995-18.303,0l0,0  c-6.835-15.692-19.358-28.215-35.051-35.051l0,0c-7.994-3.482-7.994-14.821,0-18.303l0,0c15.692-6.836,28.215-19.358,35.051-35.051  l0,0c3.482-7.994,14.821-7.994,18.303,0l0,0c6.835,15.692,19.358,28.215,35.051,35.051l0,0c7.994,3.482,7.994,14.821,0,18.303l0,0  C89.75,381.111,77.227,393.634,70.391,409.326z" data-original="#76B7EB" class="" data-old_color="#76B7EB"/></g> </svg>
