<?xml version="1.0"?>
<svg xmlns="http://www.w3.org/2000/svg" xmlns:xlink="http://www.w3.org/1999/xlink" version="1.1" id="Layer_1" x="0px" y="0px" viewBox="0 0 512 512" style="enable-background:new 0 0 512 512;" xml:space="preserve" width="512px" height="512px" class=""><g><path style="fill:#FFFFFF" d="M256,93.657L256,93.657c-21.204,0-38.393,17.189-38.393,38.393v30.145h-30.145  c-21.204,0-38.393,17.189-38.393,38.393l0,0c0,21.204,17.189,38.393,38.393,38.393h30.145v30.145  c0,21.204,17.189,38.393,38.393,38.393l0,0c21.204,0,38.393-17.189,38.393-38.393v-30.145h30.145  c21.204,0,38.393-17.189,38.393-38.393l0,0c0-21.204-17.189-38.393-38.393-38.393h-30.145v-30.147  C294.393,110.846,277.204,93.657,256,93.657z" data-original="#CEE8FA" class="" data-old_color="#CEE8FA"/><path style="fill:#D1D1D1" d="M256,321.343c-28.793,0-52.219-23.424-52.219-52.219v-16.32h-16.319  c-28.793,0-52.219-23.424-52.219-52.219s23.426-52.219,52.219-52.219h16.319v-16.318c0-28.793,23.424-52.219,52.219-52.219  s52.219,23.424,52.219,52.219v16.32h16.319c28.793,0,52.219,23.424,52.219,52.219s-23.426,52.219-52.219,52.219h-16.319v16.32  C308.219,297.919,284.793,321.343,256,321.343z M187.462,176.022c-13.546,0-24.566,11.021-24.566,24.566  s11.021,24.566,24.566,24.566h30.145c7.636,0,13.826,6.191,13.826,13.826v30.147c0,13.546,11.021,24.566,24.566,24.566  s24.566-11.021,24.566-24.566V238.98c0-7.635,6.19-13.826,13.826-13.826h30.145c13.546,0,24.566-11.021,24.566-24.566  s-11.021-24.566-24.566-24.566h-30.145c-7.636,0-13.826-6.191-13.826-13.826v-30.147c0-13.546-11.021-24.566-24.566-24.566  s-24.566,11.021-24.566,24.566v30.147c0,7.635-6.19,13.826-13.826,13.826L187.462,176.022L187.462,176.022z" data-original="#2D527C" class="active-path" data-old_color="#2D527C"/><path style="fill:#FFFFFF" d="M299.113,443.39h79.69v50.948c0,2.732-3.325,4.585-6.345,3.538l-31.741-11.014  c-1.125-0.391-2.392-0.391-3.517,0l-31.741,11.014c-3.02,1.048-6.345-0.806-6.345-3.538V443.39H299.113z" data-original="#CEE8FA" class="" data-old_color="#CEE8FA"/><g>
	<path style="fill:#D1D1D1" d="M374.221,512c-2.147,0-4.265-0.357-6.295-1.062l-28.969-10.053l-28.967,10.053   c-2.03,0.705-4.148,1.062-6.295,1.062c-10.151,0-18.408-7.922-18.408-17.66v-50.95c0-7.635,6.19-13.826,13.826-13.826h79.69   c7.636,0,13.826,6.191,13.826,13.826v50.95C392.629,504.076,384.371,511.999,374.221,512z M338.957,472.742   c2.151,0,4.267,0.355,6.285,1.055l19.733,6.848v-23.429h-52.038v23.429l19.727-6.845   C334.691,473.097,336.806,472.742,338.957,472.742z" data-original="#2D527C" class="active-path" data-old_color="#2D527C"/>
	<path style="fill:#D1D1D1" d="M405.323,456.264H124.651c-34.307,0-62.218-27.911-62.218-62.218V62.218   C62.433,27.911,90.344,0,124.651,0h280.672c24.396,0,44.244,19.848,44.244,44.244v251.858c0,7.635-6.19,13.826-13.826,13.826   s-13.826-6.191-13.826-13.826V44.244c0-9.149-7.443-16.591-16.591-16.591H124.651c-19.059,0-34.566,15.506-34.566,34.566v331.828   c0,19.059,15.506,34.566,34.566,34.566h280.672c9.149,0,16.591-7.443,16.591-16.591v-45.405c0-7.635,6.19-13.826,13.826-13.826   s13.826,6.191,13.826,13.826v45.405C449.567,436.416,429.719,456.264,405.323,456.264z" data-original="#2D527C" class="active-path" data-old_color="#2D527C"/>
	<path style="fill:#D1D1D1" d="M328.307,369.312H183.694c-7.636,0-13.826-6.191-13.826-13.826c0-7.635,6.19-13.826,13.826-13.826   h144.613c7.636,0,13.826,6.191,13.826,13.826S335.943,369.312,328.307,369.312z" data-original="#2D527C" class="active-path" data-old_color="#2D527C"/>
</g></g> </svg>
