<?xml version="1.0"?>
<svg xmlns="http://www.w3.org/2000/svg" xmlns:xlink="http://www.w3.org/1999/xlink" version="1.1" id="Layer_1" x="0px" y="0px" viewBox="0 0 512 512" style="enable-background:new 0 0 512 512;" xml:space="preserve" width="512px" height="512px" class=""><g><g>
	<path style="fill:#1561D5" d="M354.789,439.231H157.212c-7.491,0-13.564-6.073-13.564-13.564s6.073-13.564,13.564-13.564h197.576   c7.491,0,13.564,6.073,13.564,13.564C368.353,433.159,362.28,439.231,354.789,439.231z" data-original="#2D527C" class="" data-old_color="#2D527C"/>
	<path style="fill:#1561D5" d="M355.697,512H156.302c-47.119,0-85.454-38.335-85.454-85.454V158.274   c0-7.491,6.073-13.564,13.564-13.564h343.174c7.491,0,13.564,6.073,13.564,13.564v268.272C441.151,473.665,402.818,512,355.697,512   z M97.977,171.838v254.708c0,32.16,26.165,58.326,58.326,58.326h199.395c32.16,0,58.326-26.165,58.326-58.326V171.838H97.977z" data-original="#2D527C" class="" data-old_color="#2D527C"/>
</g><path style="fill:#FFCB46" d="M156.302,73.474h199.395c39.703,0,71.89,32.186,71.89,71.89v15.163H84.413v-15.163  C84.413,105.66,116.598,73.474,156.302,73.474z" data-original="#CEE8FA" class="active-path" data-old_color="#CEE8FA"/><path style="fill:#1561D5" d="M427.587,174.09H84.413c-7.491,0-13.564-6.073-13.564-13.564v-15.162  c0-47.119,38.335-85.454,85.454-85.454h199.395c47.119,0,85.454,38.335,85.454,85.454v15.162  C441.151,168.017,435.079,174.09,427.587,174.09z M97.977,146.962h316.046v-1.598c0-32.16-26.165-58.326-58.326-58.326H156.302  c-32.16,0-58.326,26.165-58.326,58.326C97.976,145.364,97.976,146.962,97.977,146.962z" data-original="#2D527C" class="" data-old_color="#2D527C"/><path style="fill:#FFCB46" d="M289.459,47.023c0-18.478-14.98-33.459-33.459-33.459s-33.459,14.98-33.459,33.459h-24.19  c-7.616,0-13.791,6.174-13.791,13.791v31.649c0,7.616,6.174,13.791,13.791,13.791h115.298c7.616,0,13.791-6.174,13.791-13.791  v-31.65c0-7.616-6.174-13.791-13.791-13.791h-24.19L289.459,47.023L289.459,47.023z" data-original="#CEE8FA" class="active-path" data-old_color="#CEE8FA"/><g>
	<path style="fill:#1561D5" d="M313.648,119.816H198.35c-15.083,0-27.355-12.271-27.355-27.355V60.812   c0-15.083,12.271-27.355,27.355-27.355h12.62C216.807,14.123,234.786,0,255.999,0c21.213,0,39.193,14.123,45.029,33.459h12.62   c15.083,0,27.355,12.271,27.355,27.355v31.649C341.003,107.546,328.732,119.816,313.648,119.816z M198.35,60.587   c-0.125,0-0.227,0.102-0.227,0.227v31.649c0,0.125,0.102,0.227,0.227,0.227h115.298c0.125,0,0.227-0.102,0.227-0.227v-31.65   c0-0.125-0.102-0.227-0.227-0.227h-24.19c-7.491,0-13.564-6.073-13.564-13.564c0-10.969-8.925-19.894-19.894-19.894   c-10.969,0-19.894,8.925-19.894,19.894c0,7.491-6.073,13.564-13.564,13.564h-24.19v0.001H198.35z" data-original="#2D527C" class="" data-old_color="#2D527C"/>
	<path style="fill:#1561D5" d="M255.999,332.527c-7.491,0-13.564-6.073-13.564-13.564v-52.9c0-7.491,6.073-13.564,13.564-13.564   c7.491,0,13.564,6.073,13.564,13.564v52.9C269.564,326.454,263.491,332.527,255.999,332.527z" data-original="#2D527C" class="" data-old_color="#2D527C"/>
	<path style="fill:#1561D5" d="M282.45,306.077h-52.9c-7.491,0-13.564-6.073-13.564-13.564s6.073-13.564,13.564-13.564h52.9   c7.491,0,13.564,6.073,13.564,13.564S289.941,306.077,282.45,306.077z" data-original="#2D527C" class="" data-old_color="#2D527C"/>
	<path style="fill:#1561D5" d="M255.999,386.331c-51.732,0-93.819-42.087-93.819-93.819s42.087-93.819,93.819-93.819   c12.798,0,25.208,2.535,36.889,7.535c6.886,2.947,10.081,10.92,7.132,17.807c-2.947,6.886-10.918,10.082-17.807,7.132   c-8.288-3.547-17.107-5.346-26.214-5.346c-36.772,0-66.691,29.917-66.691,66.691c0,36.772,29.917,66.691,66.691,66.691   s66.691-29.917,66.691-66.691c0-6.294-0.874-12.516-2.593-18.493c-2.073-7.198,2.083-14.714,9.283-16.787   c7.197-2.071,14.714,2.083,16.787,9.283c2.424,8.419,3.651,17.165,3.651,25.998C349.819,344.245,307.732,386.331,255.999,386.331z" data-original="#2D527C" class="" data-old_color="#2D527C"/>
</g></g> </svg>
