<?xml version="1.0"?>
<svg xmlns="http://www.w3.org/2000/svg" xmlns:xlink="http://www.w3.org/1999/xlink" version="1.1" id="Layer_1" x="0px" y="0px" viewBox="0 0 512 512" style="enable-background:new 0 0 512 512;" xml:space="preserve" width="512px" height="512px" class=""><g><path style="fill:#EFC31E" d="M369.502,88.911c-22.387,0-40.535,18.148-40.535,40.535v86.017h-145.93v-86.017  c0-22.387-18.148-40.535-40.535-40.535s-40.537,18.148-40.537,40.535v253.106c0,22.387,18.148,40.535,40.535,40.535  s40.535-18.148,40.535-40.535v-86.017h145.929v86.017c0,22.387,18.148,40.535,40.535,40.535c22.387,0,40.535-18.148,40.535-40.535  V129.447C410.037,107.06,391.888,88.911,369.502,88.911z" data-original="#CEE8FA" class="" data-old_color="#CEE8FA"/><g>
	<path style="fill:#1B3E9C" d="M369.502,437.78c-30.454,0-55.228-24.774-55.228-55.227v-71.326H197.729v71.326   c0,30.453-24.774,55.227-55.228,55.227c-30.453,0-55.227-24.774-55.227-55.227V129.447c0-30.453,24.774-55.227,55.227-55.227   c30.454,0,55.228,24.774,55.228,55.227v71.326h116.545v-71.326c0-30.453,24.774-55.227,55.228-55.227   c30.453,0,55.227,24.774,55.227,55.227v253.105C424.727,413.006,399.953,437.78,369.502,437.78z M183.036,281.845h145.928   c8.113,0,14.691,6.577,14.691,14.691v86.017c0,14.251,11.595,25.844,25.845,25.844c14.249,0,25.844-11.595,25.844-25.844V129.447   c0-14.251-11.595-25.844-25.844-25.844c-14.251,0-25.845,11.595-25.845,25.844v86.017c0,8.114-6.579,14.691-14.691,14.691H183.036   c-8.113,0-14.691-6.577-14.691-14.691v-86.017c0-14.251-11.595-25.844-25.845-25.844c-14.249,0-25.844,11.595-25.844,25.844   v253.105c0,14.251,11.595,25.844,25.844,25.844c14.251,0,25.845-11.595,25.845-25.844v-86.017   C168.346,288.422,174.924,281.845,183.036,281.845z" data-original="#2D527C" class="active-path" data-old_color="#2D527C"/>
	<path style="fill:#1B3E9C" d="M458.479,512h-17.367c-8.113,0-14.691-6.577-14.691-14.691s6.579-14.691,14.691-14.691h17.367   c13.31,0,24.14-10.829,24.14-24.14V53.523c0-13.31-10.829-24.14-24.14-24.14H53.524c-13.309,0-24.14,10.829-24.14,24.14v404.955   c0,13.31,10.829,24.14,24.14,24.14h306.789c8.113,0,14.691,6.577,14.691,14.691S368.424,512,360.313,512H53.524   c-29.512,0-53.523-24.01-53.523-53.523V53.523C0.002,24.01,24.012,0,53.524,0h404.955C487.99,0,512,24.01,512,53.523v404.955   C512,487.99,487.99,512,458.479,512z" data-original="#2D527C" class="active-path" data-old_color="#2D527C"/>
</g></g> </svg>
