<?xml version="1.0"?>
<svg xmlns="http://www.w3.org/2000/svg" xmlns:xlink="http://www.w3.org/1999/xlink" version="1.1" id="Layer_1" x="0px" y="0px" viewBox="0 0 511.999 511.999" style="enable-background:new 0 0 511.999 511.999;" xml:space="preserve" width="512px" height="512px" class=""><g><g>
	<path style="fill:#1B3E9C" d="M255.997,134.808c-8.264,0-14.963-6.699-14.963-14.963V66.616c0-8.264,6.699-14.963,14.963-14.963   c8.264,0,14.963,6.699,14.963,14.963v53.229C270.96,128.109,264.261,134.808,255.997,134.808z" data-original="#2D527C" class="active-path" data-old_color="#2D527C"/>
	<path style="fill:#1B3E9C" d="M282.612,108.194h-53.229c-8.264,0-14.963-6.699-14.963-14.963s6.699-14.963,14.963-14.963h53.229   c8.264,0,14.963,6.699,14.963,14.963S290.876,108.194,282.612,108.194z" data-original="#2D527C" class="active-path" data-old_color="#2D527C"/>
</g><path style="fill:#EFC31E" d="M400.459,180.217c-3.542,4.354-9.25,6.883-14.999,6.079l-47.527-6.647l-37.743,0.214  c47.066,18.373,80.535,65.204,80.535,120.108c0,70.931-55.843,140.902-124.73,140.902s-124.73-69.97-124.73-140.902  c0-54.414,32.881-100.891,79.286-119.601l-43.405,0.245l-40.619,5.68c-4.954,0.693-9.873-1.098-13.407-4.39  c-21.394,36.619-30.013,82.918-30.013,130.201c0,244.285,77.404,176.213,172.886,176.213s172.889,65.4,172.889-176.215  C428.883,264.09,421.585,217.094,400.459,180.217z" data-original="#CEE8FA" class="" data-old_color="#CEE8FA"/><g>
	<path style="fill:#1B3E9C" d="M163.152,511.999c-21.215,0-51.688-4.317-71.309-41.647C75.678,439.599,68.15,389.314,68.15,312.105   c0-54.22,11.085-101.852,32.057-137.75c2.292-3.925,6.246-6.594,10.742-7.256c4.493-0.66,9.05,0.756,12.376,3.856   c0.37,0.344,0.821,0.524,1.079,0.524l40.675-5.684c0.658-0.093,1.323-0.141,1.989-0.144l43.403-0.245c0.028,0,0.058,0,0.087,0   c7.143,0,13.298,5.053,14.68,12.072c1.387,7.045-2.426,14.083-9.086,16.769c-42.474,17.125-69.919,58.625-69.919,105.724   c0,65.912,52.318,125.939,109.767,125.939s109.767-60.027,109.767-125.939c0-46.923-28.539-89.59-71.013-106.17   c-6.688-2.611-10.58-9.605-9.271-16.666s7.449-12.195,14.628-12.237l37.743-0.214c0.73,0.007,1.442,0.045,2.158,0.144l47.526,6.647   c0.003,0,0.006,0,0.009,0c0.397,0,0.952-0.262,1.308-0.7c3.111-3.826,7.905-5.882,12.823-5.472   c4.915,0.401,9.317,3.196,11.768,7.476c20.173,35.217,30.403,82.093,30.403,139.327c0,77.169-7.69,127.382-24.198,158.024   c-19.904,36.942-50.789,41.219-72.294,41.219c-0.003,0-0.006,0-0.009,0c-13.455,0-27.465-1.849-42.297-3.807   c-15.87-2.095-32.28-4.261-49.05-4.261c-17.076,0-33.772,2.343-49.918,4.609C191.02,510.003,176.797,511.999,163.152,511.999z    M119.891,201.075c-14.306,29.865-21.816,67.92-21.816,111.03c0,169.968,39.163,169.968,65.077,169.968   c11.556,0,24.774-1.855,38.769-3.819c16.365-2.297,34.913-4.899,54.078-4.899c18.737,0,36.921,2.4,52.966,4.519   c13.83,1.826,26.893,3.549,38.382,3.551c0.001,0,0.006,0,0.007,0c23.187,0,36.068-7.145,45.95-25.488   c13.874-25.75,20.618-72.798,20.618-143.83c0-44.922-6.654-82.31-19.801-111.41c-3.504,0.766-7.17,0.917-10.733,0.417   l-30.282-4.235c6.373,6.335,12.187,13.323,17.362,20.9c16.501,24.164,25.225,52.586,25.225,82.192   c0,38.079-14.626,77-40.131,106.784C328.459,438.406,293.1,455.837,256,455.837s-72.46-17.43-99.562-49.082   c-25.503-29.782-40.131-68.704-40.131-106.784c0-29.333,8.577-57.539,24.804-81.565c5.279-7.817,11.24-15.015,17.797-21.53   l-30.302,4.239C125.722,201.518,122.752,201.497,119.891,201.075z" data-original="#2D527C" class="active-path" data-old_color="#2D527C"/>
	<path style="fill:#1B3E9C" d="M124.296,201.415c-14.504,0.001-27.505-10.194-30.625-24.725L76.938,98.747   c-3.259-15.189,5.445-31.704,19.817-37.598l140.571-57.65c11.453-4.698,28.066-4.661,39.496,0.088l51.298,21.514   c7.621,3.196,11.207,11.964,8.011,19.585c-3.196,7.619-11.966,11.209-19.585,8.011l-51.25-21.494   c-3.997-1.658-12.561-1.679-16.615-0.018l-140.57,57.651c-1.017,0.417-2.144,2.556-1.912,3.63l16.733,77.941   c0.108,0.5,1.014,1.139,1.528,1.068l114.425-16.001c9.596-1.341,24.632-1.342,34.229,0l114.422,16.001   c0.501,0.064,1.422-0.569,1.528-1.068l16.733-77.942c0.236-1.098-0.91-3.286-1.947-3.717l-24.872-10.33   c-7.633-3.169-11.249-11.926-8.08-19.557c3.169-7.633,11.926-11.251,19.558-8.079l24.87,10.329   c14.317,5.946,22.983,22.477,19.73,37.636l-16.733,77.942c-3.427,15.958-18.782,26.681-34.934,24.424l-114.422-16.001   c-6.908-0.967-19.028-0.967-25.938,0l-114.425,16.003C127.16,201.316,125.719,201.415,124.296,201.415z" data-original="#2D527C" class="active-path" data-old_color="#2D527C"/>
</g><path style="fill:#EFC31E" d="M273.414,163.971c-9.576-1.339-25.249-1.339-34.826,0l-130.02,18.183  c-5.056,16.622-8.258,49.891-9.952,68.662h314.762c-1.692-18.771-4.89-52.04-9.944-68.662L273.414,163.971z" data-original="#CEE8FA" class="" data-old_color="#CEE8FA"/><path style="fill:#1B3E9C" d="M413.378,265.78H98.616c-4.203,0-8.21-1.767-11.046-4.869c-2.835-3.102-4.235-7.254-3.857-11.439  c2.212-24.506,5.406-54.801,10.538-71.673c1.695-5.574,6.473-9.657,12.244-10.465l130.02-18.183  c5.297-0.741,12.217-1.149,19.485-1.149s14.188,0.408,19.485,1.149l130.021,18.183c5.77,0.808,10.547,4.891,12.243,10.467  c5.125,16.856,8.321,47.156,10.531,71.67c0.377,4.185-1.022,8.336-3.857,11.439C421.589,264.012,417.581,265.78,413.378,265.78z   M115.073,235.854h281.849c-1.302-12.687-3.186-28.491-5.589-40.282L271.34,178.791c-3.908-0.548-9.5-0.86-15.339-0.86  s-11.432,0.313-15.342,0.86l-119.994,16.781C118.261,207.367,116.374,223.171,115.073,235.854z" data-original="#2D527C" class="active-path" data-old_color="#2D527C"/></g> </svg>
