<?xml version="1.0"?>
<svg xmlns="http://www.w3.org/2000/svg" xmlns:xlink="http://www.w3.org/1999/xlink" version="1.1" id="Layer_1" x="0px" y="0px" viewBox="0 0 512 512" style="enable-background:new 0 0 512 512;" xml:space="preserve" width="512px" height="512px" class=""><g><path style="fill:#EFC31E" d="M229.703,212.381L74.461,278.956L21.638,155.785C3.254,112.916,23.102,63.26,65.972,44.875l0,0  c42.868-18.384,92.525,1.464,110.909,44.334L229.703,212.381z" data-original="#CEE8FA" class="" data-old_color="#CEE8FA"/><g>
	<path style="fill:#1B3E9C" d="M74.467,293.762c-5.742,0-11.204-3.362-13.611-8.972L8.034,161.618   C-13.538,111.316,9.837,52.843,60.137,31.271c12.466-5.347,25.615-8.057,39.081-8.057c39.769,0,75.593,23.614,91.266,60.16   l52.823,123.173c3.222,7.514-0.256,16.216-7.77,19.438L80.295,292.56C78.393,293.377,76.414,293.762,74.467,293.762z    M99.219,52.818c-9.432,0-18.657,1.905-27.414,5.66c-35.3,15.138-51.702,56.173-36.564,91.471l46.988,109.568l128.036-54.907   L163.277,95.043C152.277,69.392,127.133,52.818,99.219,52.818z" data-original="#2D527C" class="active-path" data-old_color="#2D527C"/>
	<path style="fill:#1B3E9C" d="M437.534,293.762c-1.945,0-3.924-0.386-5.828-1.202l-40.73-17.467   c-7.514-3.222-10.992-11.925-7.77-19.438c3.221-7.512,11.922-10.994,19.438-7.77l27.125,11.632l46.988-109.568   c15.138-35.3-1.264-76.333-36.564-91.471c-17.099-7.333-36.03-7.567-53.308-0.662c-17.277,6.907-30.83,20.126-38.163,37.226   L301.735,204.61l36.077,15.471c7.512,3.221,10.992,11.925,7.77,19.438c-3.221,7.512-11.923,10.991-19.438,7.77l-49.68-21.305   c-3.609-1.547-6.452-4.464-7.91-8.11c-1.458-3.646-1.408-7.721,0.141-11.328l52.823-123.173   c10.45-24.367,29.763-43.206,54.382-53.046c24.62-9.84,51.596-9.507,75.965,0.944c50.301,21.573,73.675,80.046,52.104,130.348   L451.143,284.79C448.738,290.401,443.276,293.762,437.534,293.762z" data-original="#2D527C" class="active-path" data-old_color="#2D527C"/>
	<path style="fill:#1B3E9C" d="M256.001,488.818c-25.927,0-47.02-21.093-47.02-47.02s21.093-47.02,47.02-47.02   s47.02,21.093,47.02,47.02c0,8.175-6.628,14.802-14.802,14.802s-14.802-6.627-14.802-14.802c0-9.604-7.813-17.416-17.416-17.416   c-9.604,0-17.416,7.813-17.416,17.416c0,9.604,7.813,17.416,17.416,17.416c8.174,0,14.802,6.627,14.802,14.802   S264.174,488.818,256.001,488.818z" data-original="#2D527C" class="active-path" data-old_color="#2D527C"/>
</g><circle style="fill:#EFC31E" cx="324.745" cy="325.913" r="32.218" data-original="#CEE8FA" class="" data-old_color="#CEE8FA"/><g>
	<path style="fill:#1B3E9C" d="M324.748,372.926c-25.927,0-47.02-21.093-47.02-47.021c0-25.927,21.093-47.02,47.02-47.02   s47.02,21.093,47.02,47.02C371.768,351.833,350.675,372.926,324.748,372.926z M324.748,308.491   c-9.602,0-17.416,7.813-17.416,17.416s7.813,17.416,17.416,17.416s17.416-7.813,17.416-17.416S334.351,308.491,324.748,308.491z" data-original="#2D527C" class="active-path" data-old_color="#2D527C"/>
	<path style="fill:#1B3E9C" d="M187.253,372.926c-25.927,0-47.02-21.093-47.02-47.021c0-25.927,21.093-47.02,47.02-47.02   s47.02,21.093,47.02,47.02c0,8.175-6.628,14.802-14.802,14.802c-8.174,0-14.802-6.627-14.802-14.802   c0-9.604-7.813-17.416-17.416-17.416c-9.602,0-17.416,7.813-17.416,17.416s7.813,17.416,17.416,17.416   c8.174,0,14.802,6.627,14.802,14.802S195.427,372.926,187.253,372.926z" data-original="#2D527C" class="active-path" data-old_color="#2D527C"/>
</g></g> </svg>
